<svg width="14" height="14" viewBox="0 0 14 14" fill="none" xmlns="http://www.w3.org/2000/svg">
<path d="M4.6 10.3334L7 7.93337L9.4 10.3334L10.3333 9.40004L7.93333 7.00004L10.3333 4.60004L9.4 3.66671L7 6.06671L4.6 3.66671L3.66666 4.60004L6.06666 7.00004L3.66666 9.40004L4.6 10.3334ZM7 13.6667C6.07777 13.6667 5.21111 13.4917 4.4 13.1417C3.58888 12.7917 2.88333 12.3167 2.28333 11.7167C1.68333 11.1167 1.20833 10.4112 0.858328 9.60004C0.508328 8.78893 0.333328 7.92226 0.333328 7.00004C0.333328 6.07782 0.508328 5.21115 0.858328 4.40004C1.20833 3.58893 1.68333 2.88337 2.28333 2.28337C2.88333 1.68337 3.58888 1.20837 4.4 0.858374C5.21111 0.508374 6.07777 0.333374 7 0.333374C7.92222 0.333374 8.78888 0.508374 9.6 0.858374C10.4111 1.20837 11.1167 1.68337 11.7167 2.28337C12.3167 2.88337 12.7917 3.58893 13.1417 4.40004C13.4917 5.21115 13.6667 6.07782 13.6667 7.00004C13.6667 7.92226 13.4917 8.78893 13.1417 9.60004C12.7917 10.4112 12.3167 11.1167 11.7167 11.7167C11.1167 12.3167 10.4111 12.7917 9.6 13.1417C8.78888 13.4917 7.92222 13.6667 7 13.6667Z" fill="#D8D8D8"/>
</svg>
