<svg width="25" height="24" viewBox="0 0 25 24" fill="none" xmlns="http://www.w3.org/2000/svg">
<path d="M3.5 19V8.99998C3.5 8.44998 3.69583 7.97914 4.0875 7.58748C4.47917 7.19581 4.95 6.99998 5.5 6.99998H9.5V5.82498C9.5 5.55831 9.55 5.30414 9.65 5.06248C9.75 4.82081 9.89167 4.60831 10.075 4.42498L11.075 3.42498C11.4583 3.04164 11.9333 2.84998 12.5 2.84998C13.0667 2.84998 13.5417 3.04164 13.925 3.42498L14.925 4.42498C15.1083 4.60831 15.25 4.82081 15.35 5.06248C15.45 5.30414 15.5 5.55831 15.5 5.82498V11H19.5C20.05 11 20.5208 11.1958 20.9125 11.5875C21.3042 11.9791 21.5 12.45 21.5 13V19C21.5 19.55 21.3042 20.0208 20.9125 20.4125C20.5208 20.8041 20.05 21 19.5 21H5.5C4.95 21 4.47917 20.8041 4.0875 20.4125C3.69583 20.0208 3.5 19.55 3.5 19ZM5.5 19H7.5V17H5.5V19ZM5.5 15H7.5V13H5.5V15ZM5.5 11H7.5V8.99998H5.5V11ZM11.5 19H13.5V17H11.5V19ZM11.5 15H13.5V13H11.5V15ZM11.5 11H13.5V8.99998H11.5V11ZM11.5 6.99998H13.5V4.99998H11.5V6.99998ZM17.5 19H19.5V17H17.5V19ZM17.5 15H19.5V13H17.5V15Z" fill="#000000"/>
</svg>
