<svg width="24" height="24" viewBox="0 0 24 24" fill="none" xmlns="http://www.w3.org/2000/svg">
<rect width="24" height="24" rx="4" fill="#3C3C42"/>
<path d="M16.9583 8.45825V7.04159H15.5417V5.62492H16.9583V4.20825H18.375V5.62492H19.7917V7.04159H18.375V8.45825H16.9583ZM11.2917 15.8958C12.1771 15.8958 12.9297 15.5859 13.5495 14.9661C14.1693 14.3463 14.4792 13.5937 14.4792 12.7083C14.4792 11.8228 14.1693 11.0702 13.5495 10.4504C12.9297 9.83065 12.1771 9.52075 11.2917 9.52075C10.4062 9.52075 9.65364 9.83065 9.03385 10.4504C8.41406 11.0702 8.10416 11.8228 8.10416 12.7083C8.10416 13.5937 8.41406 14.3463 9.03385 14.9661C9.65364 15.5859 10.4062 15.8958 11.2917 15.8958ZM11.2917 14.4791C10.7958 14.4791 10.3767 14.3079 10.0344 13.9655C9.69201 13.6232 9.52083 13.2041 9.52083 12.7083C9.52083 12.2124 9.69201 11.7933 10.0344 11.451C10.3767 11.1086 10.7958 10.9374 11.2917 10.9374C11.7875 10.9374 12.2066 11.1086 12.549 11.451C12.8913 11.7933 13.0625 12.2124 13.0625 12.7083C13.0625 13.2041 12.8913 13.6232 12.549 13.9655C12.2066 14.3079 11.7875 14.4791 11.2917 14.4791ZM5.62499 18.3749C5.23541 18.3749 4.9019 18.2362 4.62447 17.9588C4.34704 17.6813 4.20833 17.3478 4.20833 16.9583V8.45825C4.20833 8.06867 4.34704 7.73516 4.62447 7.45773C4.9019 7.1803 5.23541 7.04159 5.62499 7.04159H7.85624L9.16666 5.62492H14.125V8.45825H15.5417V9.87492H18.375V16.9583C18.375 17.3478 18.2363 17.6813 17.9588 17.9588C17.6814 18.2362 17.3479 18.3749 16.9583 18.3749H5.62499Z" fill="white"/>
</svg>
