<svg width="18" height="18" viewBox="0 0 18 18" fill="none" xmlns="http://www.w3.org/2000/svg">
<path d="M14.85 16.95L11.7 13.8375C11.2625 13.975 10.8219 14.0781 10.3781 14.1469C9.93438 14.2156 9.475 14.25 9 14.25C7.1125 14.25 5.43125 13.7281 3.95625 12.6844C2.48125 11.6406 1.4125 10.2875 0.75 8.62498C1.0125 7.96248 1.34375 7.34685 1.74375 6.7781C2.14375 6.20935 2.6 5.69998 3.1125 5.24998L1.05 3.14998L2.1 2.09998L15.9 15.9L14.85 16.95ZM9 12C9.1375 12 9.26562 11.9937 9.38438 11.9812C9.50313 11.9687 9.63125 11.9437 9.76875 11.9062L5.71875 7.85623C5.68125 7.99373 5.65625 8.12185 5.64375 8.2406C5.63125 8.35935 5.625 8.48748 5.625 8.62498C5.625 9.56248 5.95312 10.3594 6.60938 11.0156C7.26563 11.6719 8.0625 12 9 12ZM14.475 12.3375L12.0938 9.97498C12.1813 9.76248 12.25 9.54685 12.3 9.3281C12.35 9.10935 12.375 8.87498 12.375 8.62498C12.375 7.68748 12.0469 6.8906 11.3906 6.23435C10.7344 5.5781 9.9375 5.24998 9 5.24998C8.75 5.24998 8.51563 5.27498 8.29688 5.32498C8.07813 5.37498 7.8625 5.44998 7.65 5.54998L5.7375 3.63748C6.25 3.42498 6.775 3.2656 7.3125 3.15935C7.85 3.0531 8.4125 2.99998 9 2.99998C10.8875 2.99998 12.5688 3.52185 14.0438 4.5656C15.5188 5.60935 16.5875 6.96248 17.25 8.62498C16.9625 9.36248 16.5844 10.0469 16.1156 10.6781C15.6469 11.3094 15.1 11.8625 14.475 12.3375ZM11.0063 8.88748L8.75625 6.63748C9.10625 6.57498 9.42813 6.6031 9.72188 6.72185C10.0156 6.8406 10.2688 7.01248 10.4813 7.23748C10.6938 7.46248 10.8469 7.72185 10.9406 8.0156C11.0344 8.30935 11.0563 8.59998 11.0063 8.88748Z" fill="#5F6368"/>
</svg>
