<svg width="20" height="20" viewBox="0 0 20 20" fill="none" xmlns="http://www.w3.org/2000/svg">
<path d="M5.83333 12.5C5.13888 12.5 4.54861 12.2569 4.06249 11.7708C3.57638 11.2847 3.33333 10.6944 3.33333 10C3.33333 9.30556 3.57638 8.71528 4.06249 8.22917C4.54861 7.74306 5.13888 7.5 5.83333 7.5C6.52777 7.5 7.11805 7.74306 7.60416 8.22917C8.09027 8.71528 8.33333 9.30556 8.33333 10C8.33333 10.6944 8.09027 11.2847 7.60416 11.7708C7.11805 12.2569 6.52777 12.5 5.83333 12.5ZM5.83333 15C6.90277 15 7.86805 14.6944 8.72916 14.0833C9.59027 13.4722 10.1944 12.6667 10.5417 11.6667H10.8333L11.9167 12.75C12 12.8333 12.0903 12.8924 12.1875 12.9271C12.2847 12.9618 12.3889 12.9792 12.5 12.9792C12.6111 12.9792 12.7153 12.9618 12.8125 12.9271C12.9097 12.8924 13 12.8333 13.0833 12.75L14.1667 11.6667L15.625 12.8125C15.7083 12.8819 15.8021 12.934 15.9062 12.9688C16.0104 13.0035 16.1181 13.0139 16.2292 13C16.3403 12.9861 16.441 12.9549 16.5312 12.9062C16.6215 12.8576 16.7014 12.7917 16.7708 12.7083L18.6458 10.5625C18.7153 10.4792 18.7674 10.3889 18.8021 10.2917C18.8368 10.1944 18.8542 10.0903 18.8542 9.97917C18.8542 9.86806 18.8333 9.76736 18.7917 9.67708C18.75 9.58681 18.6944 9.50694 18.625 9.4375L17.7708 8.58333C17.6875 8.5 17.5937 8.4375 17.4896 8.39583C17.3854 8.35417 17.2778 8.33333 17.1667 8.33333H10.5417C10.2083 7.38889 9.62152 6.59722 8.78125 5.95833C7.94097 5.31944 6.95833 5 5.83333 5C4.44444 5 3.26388 5.48611 2.29166 6.45833C1.31944 7.43056 0.833328 8.61111 0.833328 10C0.833328 11.3889 1.31944 12.5694 2.29166 13.5417C3.26388 14.5139 4.44444 15 5.83333 15Z" fill="#757575"/>
</svg>
