<svg width="21" height="20" viewBox="0 0 21 20" fill="none" xmlns="http://www.w3.org/2000/svg">
<path d="M10.5 18.3334C9.36112 18.3334 8.28473 18.1147 7.27084 17.6772C6.25695 17.2397 5.37153 16.6424 4.61459 15.8855C3.85764 15.1286 3.26042 14.2431 2.82292 13.2292C2.38542 12.2154 2.16667 11.139 2.16667 10.0001C2.16667 8.8473 2.38542 7.76744 2.82292 6.7605C3.26042 5.75355 3.85764 4.87161 4.61459 4.11466C5.37153 3.35772 6.25695 2.7605 7.27084 2.323C8.28473 1.8855 9.36112 1.66675 10.5 1.66675C11.6528 1.66675 12.7326 1.8855 13.7396 2.323C14.7465 2.7605 15.6285 3.35772 16.3854 4.11466C17.1424 4.87161 17.7396 5.75355 18.1771 6.7605C18.6146 7.76744 18.8333 8.8473 18.8333 10.0001C18.8333 11.139 18.6146 12.2154 18.1771 13.2292C17.7396 14.2431 17.1424 15.1286 16.3854 15.8855C15.6285 16.6424 14.7465 17.2397 13.7396 17.6772C12.7326 18.1147 11.6528 18.3334 10.5 18.3334ZM10.5 16.6251C10.8611 16.1251 11.1736 15.6042 11.4375 15.0626C11.7014 14.5209 11.9167 13.9445 12.0833 13.3334H8.91667C9.08334 13.9445 9.29862 14.5209 9.5625 15.0626C9.82639 15.6042 10.1389 16.1251 10.5 16.6251ZM8.33334 16.2917C8.08334 15.8334 7.86459 15.3577 7.67709 14.8647C7.48959 14.3716 7.33334 13.8612 7.20834 13.3334H4.75001C5.15278 14.0279 5.65625 14.632 6.26042 15.1459C6.86459 15.6598 7.55556 16.0417 8.33334 16.2917ZM12.6667 16.2917C13.4444 16.0417 14.1354 15.6598 14.7396 15.1459C15.3438 14.632 15.8472 14.0279 16.25 13.3334H13.7917C13.6667 13.8612 13.5104 14.3716 13.3229 14.8647C13.1354 15.3577 12.9167 15.8334 12.6667 16.2917ZM4.04167 11.6667H6.875C6.83334 11.389 6.80209 11.1147 6.78125 10.8438C6.76042 10.573 6.75 10.2917 6.75 10.0001C6.75 9.70841 6.76042 9.42716 6.78125 9.15633C6.80209 8.8855 6.83334 8.61119 6.875 8.33341H4.04167C3.97223 8.61119 3.92014 8.8855 3.88542 9.15633C3.8507 9.42716 3.83334 9.70841 3.83334 10.0001C3.83334 10.2917 3.8507 10.573 3.88542 10.8438C3.92014 11.1147 3.97223 11.389 4.04167 11.6667ZM8.54167 11.6667H12.4583C12.5 11.389 12.5313 11.1147 12.5521 10.8438C12.5729 10.573 12.5833 10.2917 12.5833 10.0001C12.5833 9.70841 12.5729 9.42716 12.5521 9.15633C12.5313 8.8855 12.5 8.61119 12.4583 8.33341H8.54167C8.5 8.61119 8.46875 8.8855 8.44792 9.15633C8.42709 9.42716 8.41667 9.70841 8.41667 10.0001C8.41667 10.2917 8.42709 10.573 8.44792 10.8438C8.46875 11.1147 8.5 11.389 8.54167 11.6667ZM14.125 11.6667H16.9583C17.0278 11.389 17.0799 11.1147 17.1146 10.8438C17.1493 10.573 17.1667 10.2917 17.1667 10.0001C17.1667 9.70841 17.1493 9.42716 17.1146 9.15633C17.0799 8.8855 17.0278 8.61119 16.9583 8.33341H14.125C14.1667 8.61119 14.1979 8.8855 14.2188 9.15633C14.2396 9.42716 14.25 9.70841 14.25 10.0001C14.25 10.2917 14.2396 10.573 14.2188 10.8438C14.1979 11.1147 14.1667 11.389 14.125 11.6667ZM13.7917 6.66675H16.25C15.8472 5.9723 15.3438 5.36814 14.7396 4.85425C14.1354 4.34036 13.4444 3.95841 12.6667 3.70841C12.9167 4.16675 13.1354 4.64244 13.3229 5.1355C13.5104 5.62855 13.6667 6.13897 13.7917 6.66675ZM8.91667 6.66675H12.0833C11.9167 6.05564 11.7014 5.47925 11.4375 4.93758C11.1736 4.39591 10.8611 3.87508 10.5 3.37508C10.1389 3.87508 9.82639 4.39591 9.5625 4.93758C9.29862 5.47925 9.08334 6.05564 8.91667 6.66675ZM4.75001 6.66675H7.20834C7.33334 6.13897 7.48959 5.62855 7.67709 5.1355C7.86459 4.64244 8.08334 4.16675 8.33334 3.70841C7.55556 3.95841 6.86459 4.34036 6.26042 4.85425C5.65625 5.36814 5.15278 5.9723 4.75001 6.66675Z" fill="#00AA4F"/>
</svg>
