<svg width="25" height="24" viewBox="0 0 25 24" fill="none" xmlns="http://www.w3.org/2000/svg">
<path d="M5.5 21C4.95 21 4.47917 20.8042 4.0875 20.4125C3.69583 20.0208 3.5 19.55 3.5 19V5C3.5 4.45 3.69583 3.97917 4.0875 3.5875C4.47917 3.19583 4.95 3 5.5 3H9.7C9.93333 2.4 10.3 1.91667 10.8 1.55C11.3 1.18333 11.8667 1 12.5 1C13.1333 1 13.7 1.18333 14.2 1.55C14.7 1.91667 15.0667 2.4 15.3 3H19.5C20.05 3 20.5208 3.19583 20.9125 3.5875C21.3042 3.97917 21.5 4.45 21.5 5V19C21.5 19.55 21.3042 20.0208 20.9125 20.4125C20.5208 20.8042 20.05 21 19.5 21H5.5ZM12.5 4.25C12.7167 4.25 12.8958 4.17917 13.0375 4.0375C13.1792 3.89583 13.25 3.71667 13.25 3.5C13.25 3.28333 13.1792 3.10417 13.0375 2.9625C12.8958 2.82083 12.7167 2.75 12.5 2.75C12.2833 2.75 12.1042 2.82083 11.9625 2.9625C11.8208 3.10417 11.75 3.28333 11.75 3.5C11.75 3.71667 11.8208 3.89583 11.9625 4.0375C12.1042 4.17917 12.2833 4.25 12.5 4.25ZM12.5 13C13.4667 13 14.2917 12.6583 14.975 11.975C15.6583 11.2917 16 10.4667 16 9.5C16 8.53333 15.6583 7.70833 14.975 7.025C14.2917 6.34167 13.4667 6 12.5 6C11.5333 6 10.7083 6.34167 10.025 7.025C9.34167 7.70833 9 8.53333 9 9.5C9 10.4667 9.34167 11.2917 10.025 11.975C10.7083 12.6583 11.5333 13 12.5 13ZM5.5 19H19.5V17.85C18.6 16.9667 17.5542 16.2708 16.3625 15.7625C15.1708 15.2542 13.8833 15 12.5 15C11.1167 15 9.82917 15.2542 8.6375 15.7625C7.44583 16.2708 6.4 16.9667 5.5 17.85V19Z" fill="#000000"/>
</svg>
