<svg width="28" height="28" viewBox="0 0 28 28" fill="none" xmlns="http://www.w3.org/2000/svg">
<path d="M4.6665 22.1663V19.833H6.99984V11.6663C6.99984 10.0525 7.48595 8.61842 8.45817 7.36426C9.43039 6.11009 10.6943 5.28856 12.2498 4.89967V4.08301C12.2498 3.5969 12.42 3.1837 12.7603 2.84342C13.1005 2.50315 13.5137 2.33301 13.9998 2.33301C14.4859 2.33301 14.8991 2.50315 15.2394 2.84342C15.5797 3.1837 15.7498 3.5969 15.7498 4.08301V4.89967C17.3054 5.28856 18.5693 6.11009 19.5415 7.36426C20.5137 8.61842 20.9998 10.0525 20.9998 11.6663V19.833H23.3332V22.1663H4.6665ZM13.9998 25.6663C13.3582 25.6663 12.8089 25.4379 12.3519 24.9809C11.895 24.524 11.6665 23.9747 11.6665 23.333H16.3332C16.3332 23.9747 16.1047 24.524 15.6478 24.9809C15.1908 25.4379 14.6415 25.6663 13.9998 25.6663Z" fill="#3C3C42"/>
</svg>
