<svg width="21" height="20" viewBox="0 0 21 20" fill="none" xmlns="http://www.w3.org/2000/svg">
<path d="M10.5 18.3334C9.34723 18.3334 8.26389 18.1147 7.25 17.6772C6.23612 17.2397 5.35417 16.6459 4.60417 15.8959C3.85417 15.1459 3.26042 14.264 2.82292 13.2501C2.38542 12.2362 2.16667 11.1529 2.16667 10.0001C2.16667 8.83341 2.38542 7.74661 2.82292 6.73966C3.26042 5.73272 3.85417 4.85425 4.60417 4.10425L5.77084 5.27091C5.15973 5.88203 4.68403 6.59036 4.34376 7.39591C4.00348 8.20147 3.83334 9.06953 3.83334 10.0001C3.83334 11.8612 4.47917 13.4376 5.77084 14.7292C7.0625 16.0209 8.63889 16.6667 10.5 16.6667C12.3611 16.6667 13.9375 16.0209 15.2292 14.7292C16.5208 13.4376 17.1667 11.8612 17.1667 10.0001C17.1667 9.06953 16.9965 8.20147 16.6563 7.39591C16.316 6.59036 15.8403 5.88203 15.2292 5.27091L16.3958 4.10425C17.1458 4.85425 17.7396 5.73272 18.1771 6.73966C18.6146 7.74661 18.8333 8.83341 18.8333 10.0001C18.8333 11.1529 18.6146 12.2362 18.1771 13.2501C17.7396 14.264 17.1458 15.1459 16.3958 15.8959C15.6458 16.6459 14.7639 17.2397 13.75 17.6772C12.7361 18.1147 11.6528 18.3334 10.5 18.3334ZM9.66667 10.8334V1.66675H11.3333V10.8334H9.66667Z" fill="#757575"/>
</svg>
