<svg width="132" height="88" viewBox="0 0 132 88" fill="none" xmlns="http://www.w3.org/2000/svg">
<path d="M130.63 73.5642C130.235 73.5642 129.9 73.4301 129.626 73.162C129.352 72.8938 129.215 72.5661 129.215 72.1787C129.215 71.7914 129.352 71.4636 129.626 71.1955C129.9 70.9273 130.235 70.7932 130.63 70.7932C131.011 70.7932 131.33 70.9273 131.589 71.1955C131.863 71.4636 132 71.7914 132 72.1787C132 72.5661 131.863 72.8938 131.589 73.162C131.33 73.4301 131.011 73.5642 130.63 73.5642ZM131.635 75.5531V87.7991H129.558V75.5531H131.635Z" fill="white"/>
<path d="M113.358 81.6311C113.358 80.3797 113.617 79.2847 114.134 78.3461C114.651 77.3927 115.359 76.6552 116.257 76.1338C117.17 75.6124 118.181 75.3517 119.292 75.3517C120.388 75.3517 121.339 75.5826 122.145 76.0444C122.951 76.5063 123.552 77.0873 123.948 77.7875V75.5528H126.048V87.7988H123.948V85.5194C123.537 86.2345 122.921 86.8304 122.099 87.3072C121.293 87.769 120.35 87.9999 119.269 87.9999C118.159 87.9999 117.154 87.7318 116.257 87.1954C115.359 86.6591 114.651 85.9068 114.134 84.9384C113.617 83.9701 113.358 82.8676 113.358 81.6311ZM123.948 81.6535C123.948 80.7298 123.758 79.9253 123.378 79.24C122.997 78.5547 122.48 78.0333 121.826 77.6757C121.186 77.3033 120.479 77.1171 119.703 77.1171C118.927 77.1171 118.219 77.2958 117.58 77.6534C116.941 78.0109 116.432 78.5324 116.051 79.2177C115.671 79.903 115.481 80.7074 115.481 81.6311C115.481 82.5697 115.671 83.3891 116.051 84.0892C116.432 84.7745 116.941 85.3034 117.58 85.6759C118.219 86.0334 118.927 86.2122 119.703 86.2122C120.479 86.2122 121.186 86.0334 121.826 85.6759C122.48 85.3034 122.997 84.7745 123.378 84.0892C123.758 83.3891 123.948 82.5771 123.948 81.6535Z" fill="white"/>
<path d="M110.005 87.933C109.609 87.933 109.274 87.7989 109 87.5307C108.726 87.2626 108.589 86.9348 108.589 86.5475C108.589 86.1601 108.726 85.8324 109 85.5642C109.274 85.2961 109.609 85.162 110.005 85.162C110.385 85.162 110.704 85.2961 110.963 85.5642C111.237 85.8324 111.374 86.1601 111.374 86.5475C111.374 86.9348 111.237 87.2626 110.963 87.5307C110.704 87.7989 110.385 87.933 110.005 87.933Z" fill="white"/>
<path d="M107.152 72.2228L101.971 81.9213V87.7984H99.8941V81.9213L94.6904 72.2228H96.9956L100.921 80.1112L104.847 72.2228H107.152Z" fill="white"/>
<path d="M90.5046 87.7984L86.716 81.4296H84.2054V87.7984H82.1285V72.2228H87.2638C88.4658 72.2228 89.4776 72.4239 90.2992 72.8261C91.1361 73.2284 91.7599 73.7722 92.1707 74.4575C92.5815 75.1427 92.787 75.9249 92.787 76.8039C92.787 77.8765 92.4674 78.8225 91.8284 79.6419C91.2045 80.4613 90.2612 81.005 88.9983 81.2732L92.9924 87.7984H90.5046ZM84.2054 79.7983H87.2638C88.3897 79.7983 89.2342 79.5302 89.7971 78.9938C90.3601 78.4426 90.6416 77.7126 90.6416 76.8039C90.6416 75.8802 90.3601 75.1651 89.7971 74.6586C89.2494 74.152 88.4049 73.8988 87.2638 73.8988H84.2054V79.7983Z" fill="white"/>
<path d="M76.6189 87.7984L72.8303 81.4296H70.3197V87.7984H68.2428V72.2228H73.378C74.58 72.2228 75.5919 72.4239 76.4135 72.8261C77.2503 73.2284 77.8742 73.7722 78.285 74.4575C78.6958 75.1427 78.9012 75.9249 78.9012 76.8039C78.9012 77.8765 78.5817 78.8225 77.9426 79.6419C77.3188 80.4613 76.3754 81.005 75.1126 81.2732L79.1066 87.7984H76.6189ZM70.3197 79.7983H73.378C74.504 79.7983 75.3484 79.5302 75.9114 78.9938C76.4744 78.4426 76.7558 77.7126 76.7558 76.8039C76.7558 75.8802 76.4744 75.1651 75.9114 74.6586C75.3636 74.152 74.5192 73.8988 73.378 73.8988H70.3197V79.7983Z" fill="white"/>
<path d="M57.513 87.9549C56.0371 87.9549 54.6905 87.6197 53.4733 86.9493C52.2561 86.264 51.2899 85.318 50.5748 84.1113C49.8749 82.8897 49.5249 81.5191 49.5249 79.9995C49.5249 78.4799 49.8749 77.1168 50.5748 75.91C51.2899 74.6884 52.2561 73.7424 53.4733 73.072C54.6905 72.3867 56.0371 72.0441 57.513 72.0441C59.0041 72.0441 60.3583 72.3867 61.5755 73.072C62.7928 73.7424 63.7513 74.681 64.4512 75.8877C65.1512 77.0944 65.5011 78.465 65.5011 79.9995C65.5011 81.534 65.1512 82.9046 64.4512 84.1113C63.7513 85.318 62.7928 86.264 61.5755 86.9493C60.3583 87.6197 59.0041 87.9549 57.513 87.9549ZM57.513 86.1895C58.6237 86.1895 59.6203 85.9363 60.5028 85.4298C61.4006 84.9232 62.1005 84.2007 62.6026 83.2621C63.1199 82.3236 63.3786 81.236 63.3786 79.9995C63.3786 78.7481 63.1199 77.6605 62.6026 76.7369C62.1005 75.7983 61.4082 75.0758 60.5257 74.5692C59.6432 74.0627 58.6389 73.8095 57.513 73.8095C56.3871 73.8095 55.3828 74.0627 54.5003 74.5692C53.6179 75.0758 52.9179 75.7983 52.4006 76.7369C51.8985 77.6605 51.6475 78.7481 51.6475 79.9995C51.6475 81.236 51.8985 82.3236 52.4006 83.2621C52.9179 84.2007 53.6179 84.9232 54.5003 85.4298C55.3981 85.9363 56.4023 86.1895 57.513 86.1895Z" fill="white"/>
<path d="M42.5264 86.1448H48.0952V87.7984H40.4495V72.2228H42.5264V86.1448Z" fill="white"/>
<path d="M38.2588 72.2228L33.0779 81.9213V87.7984H31.001V81.9213L25.7974 72.2228H28.1025L32.0281 80.1112L35.9537 72.2228H38.2588Z" fill="white"/>
<path d="M23.599 72.335V87.7989H21.5221V76.268L16.2727 87.7989H14.8121L9.53992 76.2456V87.7989H7.46301V72.335H9.69968L15.5424 85.1173L21.3851 72.335H23.599Z" fill="white"/>
<g clip-path="url(#clip0_1_103)">
<path d="M41.7354 0.0974467C41.9387 0.0871829 42.1002 0.0666553 42.2618 0.0666553C45.8944 0.0666553 49.527 0.0666553 53.1543 0.0615234C53.4774 0.0615234 53.6703 0.143634 53.8475 0.436152C55.8123 3.67951 57.7875 6.9126 59.768 10.1457C61.6911 13.2864 63.6195 16.422 65.5426 19.5627C66.3765 20.9227 67.2103 22.2826 68.0234 23.658C68.2318 24.0121 68.4664 24.166 68.9042 24.166C73.9022 24.1506 78.9002 24.1198 83.8983 24.1917C84.9823 24.2071 85.5973 23.9351 86.1237 22.9754C87.3224 20.8046 88.6618 18.7108 89.9439 16.5862C91.226 14.4616 92.5133 12.337 93.7901 10.2124C95.1608 7.93385 96.5211 5.65529 97.8918 3.37673C98.4963 2.37088 99.1165 1.37529 99.7054 0.364305C99.867 0.0923148 100.096 0.102579 100.341 0.102579C102.468 0.102579 104.594 0.102579 106.72 0.102579C108.185 0.102579 109.649 0.112842 111.114 0.0974467C111.526 0.0923148 111.656 0.205217 111.656 0.626032C111.64 2.90972 111.656 5.19342 111.656 7.47711C111.661 9.99174 111.672 12.5064 111.682 15.0159C111.692 18.6031 111.708 22.1903 111.718 25.7774C111.718 26.4087 111.698 26.4343 111.041 26.4343C108.763 26.4343 106.486 26.4138 104.208 26.4189C99.4709 26.4189 94.7387 26.4446 90.0012 26.4446C75.0331 26.4549 60.0651 26.4549 45.097 26.46C40.224 26.46 35.3459 26.4651 30.4729 26.46C30.1393 26.46 29.983 26.5832 29.8579 26.8705C28.8781 29.1388 26.6214 30.1447 24.2501 29.3903C21.4775 28.5076 20.3934 24.8537 22.2488 22.6419C24.4794 19.9835 28.5341 20.5686 29.8735 23.7555C29.9986 24.0583 30.1706 24.1506 30.4937 24.1506C34.0273 24.1455 37.5608 24.1506 41.0996 24.1506C41.5339 24.1506 41.7511 23.9317 41.7511 23.4938C41.7511 15.9396 41.7511 8.38033 41.7511 0.826176C41.7511 0.600372 41.7511 0.369437 41.7511 0.10771L41.7354 0.0974467ZM23.7393 25.254C23.7289 26.3881 24.6201 27.2862 25.7615 27.2862C26.8455 27.2862 27.7836 26.3727 27.8045 25.2848C27.8201 24.2635 26.8507 23.2936 25.7928 23.2885C24.6775 23.2782 23.7498 24.166 23.7393 25.254Z" fill="white"/>
<path d="M48.37 48.6708C48.0885 48.6503 47.8749 48.6246 47.6664 48.6246C42.9446 48.6246 38.2227 48.6246 33.5009 48.64C33.1153 48.64 32.8755 48.522 32.641 48.2192C30.9732 46.0535 29.2794 43.9135 27.6117 41.753C27.398 41.4759 27.1843 41.3476 26.8299 41.3527C25.256 41.3681 23.682 41.3681 22.1081 41.3527C21.7954 41.3527 21.6807 41.4913 21.5765 41.7376C20.727 43.7185 18.9759 44.7295 16.8234 44.4832C15.0306 44.2779 13.4618 42.8102 13.1127 41.014C12.6749 38.7765 13.9934 36.6724 16.2553 36.0001C18.3557 35.3741 20.6749 36.4672 21.5192 38.5148C21.6912 38.9253 21.9048 39.0485 22.3374 39.0485C24.2553 39.028 26.1785 39.0485 28.0964 39.0382C28.3882 39.0382 28.5811 39.1306 28.753 39.3564C30.4156 41.5067 32.0938 43.6467 33.7459 45.8021C34.0169 46.1562 34.3035 46.3101 34.7726 46.3101C51.1895 46.2999 67.6065 46.3101 84.0234 46.3153C93.0136 46.3153 101.999 46.3307 110.989 46.3409C111.114 46.3409 111.239 46.346 111.364 46.3409C111.646 46.3358 111.76 46.4743 111.755 46.7463C111.745 47.085 111.745 47.4237 111.745 47.7676C111.765 52.0168 111.791 56.2711 111.812 60.5203C111.812 61.2439 111.802 61.2593 111.083 61.2593C107.023 61.2593 102.963 61.2542 98.9029 61.2696C98.4911 61.2696 98.4546 61.0695 98.4494 60.7667C98.4338 58.7293 98.4077 56.6919 98.3973 54.6546C98.3869 52.8995 98.3973 51.1495 98.3973 49.3944C98.3973 48.5887 98.3817 48.5836 97.5687 48.5887C93.4931 48.5989 89.4227 48.6143 85.3472 48.6246C84.9198 48.6246 84.4924 48.6246 84.0651 48.6143C83.7889 48.6041 83.6012 48.7067 83.4553 48.9479C82.3608 50.7543 81.256 52.5556 80.1667 54.3672C80.0208 54.6084 79.8801 54.7624 79.5674 54.7624C77.6338 54.7521 75.7003 54.7726 73.7667 54.747C73.5999 54.747 73.3758 54.5622 73.2768 54.4031C72.1302 52.5916 71.0149 50.7697 69.8631 48.9633C69.7641 48.8042 69.5035 48.6503 69.3159 48.6451C64.7452 48.6297 60.1745 48.6349 55.6038 48.6297C55.3068 48.6297 55.2025 48.7324 55.2025 49.0352C55.2025 52.4735 55.1973 55.9119 55.1869 59.3503C55.1869 59.8532 55.1713 60.3561 55.1869 60.859C55.1973 61.1772 55.0723 61.2799 54.7491 61.2799C52.3882 61.2696 50.0273 61.2799 47.6664 61.2799C45.8423 61.2799 44.0234 61.2696 42.1993 61.2799C41.8553 61.2799 41.7511 61.1772 41.7563 60.8385C41.7719 59.4118 41.7563 57.9852 41.7667 56.5585C41.7667 56.1685 41.6416 56.0248 41.2403 56.0402C40.6045 56.0659 39.9687 56.0556 39.3328 56.0402C39.0462 56.0351 38.8846 56.1274 38.7752 56.4046C37.884 58.6934 35.3094 59.8275 33.0006 58.8884C31.3433 58.2161 30.3947 56.9383 30.2592 55.1729C30.1342 53.541 30.8221 52.2221 32.1876 51.3035C33.7876 50.2258 35.8149 50.2873 37.3315 51.4369C37.9882 51.9295 38.4833 52.571 38.7648 53.3408C38.869 53.6282 39.0097 53.7565 39.3276 53.7565C40.9276 53.7462 42.5328 53.7668 44.1328 53.7411C44.3257 53.7411 44.5758 53.5974 44.7009 53.4435C45.8631 51.9757 47.0045 50.4926 48.1459 49.0146C48.2084 48.9325 48.2605 48.8401 48.37 48.6708ZM34.6527 56.887C35.768 56.887 36.6957 55.994 36.7009 54.9112C36.7113 53.8283 35.7576 52.8841 34.6527 52.8789C33.5322 52.8789 32.6045 53.7976 32.6097 54.9112C32.6097 56.0094 33.5218 56.887 34.6527 56.887ZM19.471 40.198C19.471 39.1203 18.5693 38.1915 17.5009 38.1812C16.3648 38.1709 15.4215 39.069 15.4058 40.1724C15.3902 41.2449 16.3752 42.2149 17.4697 42.2046C18.5329 42.1943 19.4658 41.2603 19.471 40.198Z" fill="white"/>
<path d="M66.439 33.8653C51.6221 33.8653 36.8052 33.8653 21.9882 33.8756C21.5452 33.8756 21.2638 33.7524 20.9876 33.3983C18.8612 30.6425 16.714 27.897 14.5615 25.1617C14.4469 25.018 14.2071 24.8948 14.0247 24.8897C12.4352 24.8691 10.8508 24.8897 9.26121 24.8691C8.93288 24.8691 8.77652 24.9718 8.65665 25.2746C7.98955 26.9424 6.33744 28.0714 4.53418 28.0406C2.68402 28.0099 1.29249 27.1477 0.515939 25.5004C-0.244973 23.8992 -0.036504 22.3237 1.09965 20.9484C2.19933 19.6192 3.66382 19.1112 5.3889 19.4345C6.96284 19.7321 8.03125 20.6661 8.65665 22.0928C8.79737 22.411 8.96936 22.5136 9.30291 22.5136C11.2625 22.5033 13.2221 22.5136 15.1869 22.5033C15.4684 22.5033 15.6456 22.5957 15.8071 22.8061C17.9544 25.5825 20.1172 28.3486 22.2645 31.13C22.4729 31.402 22.697 31.5149 23.0567 31.5149C44.086 31.5149 65.1153 31.5149 86.1498 31.5201C94.4625 31.5201 102.775 31.5252 111.088 31.5303C111.692 31.5303 111.729 31.5611 111.729 32.141C111.729 32.5772 111.724 33.0083 111.729 33.4445C111.729 33.6806 111.635 33.7986 111.39 33.7986C111.171 33.7986 110.947 33.8089 110.728 33.8089C105.866 33.8089 101.008 33.8089 96.1459 33.8089C86.2436 33.8089 76.3465 33.8089 66.4443 33.8089C66.4443 33.8243 66.4443 33.8397 66.4443 33.8551L66.439 33.8653ZM2.51724 23.6837C2.51724 24.7665 3.42929 25.6851 4.53418 25.7056C5.57131 25.7262 6.5876 24.7203 6.57718 23.6888C6.56675 22.6624 5.59216 21.6976 4.56024 21.6874C3.4762 21.6771 2.51724 22.6162 2.51724 23.6837Z" fill="white"/>
<path d="M77.9882 41.2704C67.0957 41.2704 56.198 41.2704 45.3055 41.2704C45.2482 41.2704 45.1961 41.2755 45.1387 41.2704C44.6592 41.2037 44.3987 41.3628 44.1798 41.8452C43.4293 43.5028 42.0482 44.406 40.2397 44.4265C37.6964 44.4522 35.7837 42.5534 35.768 40.0952C35.7472 36.9288 39.0619 34.7991 42.0586 36.159C43.0853 36.626 43.8462 37.3907 44.2371 38.4427C44.3882 38.843 44.5967 38.9456 44.9928 38.9456C48.0052 38.9354 51.0123 38.9405 54.0247 38.9405C66.3973 38.9405 78.77 38.9508 91.1426 38.9559C97.798 38.9559 104.453 38.9559 111.109 38.9559C111.724 38.9559 111.729 38.9559 111.734 39.5666C111.734 39.9874 111.734 40.4082 111.734 40.829C111.734 41.0959 111.609 41.2293 111.333 41.2293C110.947 41.2293 110.561 41.2345 110.171 41.2345C101.029 41.2345 91.8879 41.2345 82.7465 41.2396C81.157 41.2396 79.5726 41.2396 77.983 41.2396C77.983 41.2499 77.983 41.255 77.983 41.2653L77.9882 41.2704ZM40.1876 42.0812C41.2977 42.0761 42.2306 41.1626 42.2306 40.0849C42.2306 39.0123 41.2299 38.0424 40.1459 38.0578C39.0827 38.0732 38.1029 39.0585 38.1237 40.1003C38.1446 41.1831 39.0827 42.0864 40.1876 42.0812Z" fill="white"/>
</g>
<defs>
<clipPath id="clip0_1_103">
<rect width="111.864" height="61.3364" fill="white"/>
</clipPath>
</defs>
</svg>
