<svg width="293" height="145" viewBox="0 0 293 145" fill="none" xmlns="http://www.w3.org/2000/svg">
<path d="M236.101 101.986C235.553 101.986 235.089 101.8 234.709 101.429C234.329 101.057 234.14 100.603 234.14 100.066C234.14 99.5286 234.329 99.0742 234.709 98.7024C235.089 98.3307 235.553 98.1448 236.101 98.1448C236.629 98.1448 237.072 98.3307 237.43 98.7024C237.81 99.0742 238 99.5286 238 100.066C238 100.603 237.81 101.057 237.43 101.429C237.072 101.8 236.629 101.986 236.101 101.986ZM237.494 104.744V121.721H234.614V104.744H237.494Z" fill="#0072BB"/>
<path d="M212.156 113.171C212.156 111.436 212.514 109.918 213.232 108.617C213.949 107.295 214.93 106.273 216.174 105.55C217.44 104.827 218.843 104.465 220.382 104.465C221.901 104.465 223.22 104.785 224.338 105.426C225.456 106.066 226.289 106.871 226.837 107.842V104.744H229.748V121.722H226.837V118.562C226.268 119.553 225.413 120.379 224.274 121.04C223.156 121.68 221.849 122 220.351 122C218.811 122 217.419 121.629 216.174 120.885C214.93 120.142 213.949 119.099 213.232 117.756C212.514 116.414 212.156 114.885 212.156 113.171ZM226.837 113.202C226.837 111.921 226.574 110.806 226.046 109.856C225.519 108.906 224.802 108.183 223.895 107.687C223.009 107.171 222.028 106.913 220.952 106.913C219.876 106.913 218.895 107.161 218.009 107.656C217.123 108.152 216.417 108.875 215.889 109.825C215.362 110.775 215.098 111.89 215.098 113.171C215.098 114.472 215.362 115.608 215.889 116.579C216.417 117.529 217.123 118.262 218.009 118.778C218.895 119.274 219.876 119.522 220.952 119.522C222.028 119.522 223.009 119.274 223.895 118.778C224.802 118.262 225.519 117.529 226.046 116.579C226.574 115.608 226.837 114.482 226.837 113.202Z" fill="#0072BB"/>
<path d="M207.506 121.907C206.958 121.907 206.494 121.721 206.114 121.35C205.734 120.978 205.544 120.523 205.544 119.986C205.544 119.449 205.734 118.995 206.114 118.623C206.494 118.251 206.958 118.066 207.506 118.066C208.034 118.066 208.477 118.251 208.835 118.623C209.215 118.995 209.405 119.449 209.405 119.986C209.405 120.523 209.215 120.978 208.835 121.35C208.477 121.721 208.034 121.907 207.506 121.907Z" fill="#0072BB"/>
<path d="M203.551 100.126L196.368 113.572V121.72H193.489V113.572L186.275 100.126H189.471L194.913 111.063L200.355 100.126H203.551Z" fill="#00AA4F"/>
<path d="M180.472 121.72L175.22 112.89H171.739V121.72H168.86V100.126H175.979C177.646 100.126 179.048 100.405 180.187 100.963C181.348 101.52 182.212 102.274 182.782 103.224C183.352 104.174 183.636 105.259 183.636 106.477C183.636 107.964 183.193 109.276 182.307 110.412C181.443 111.548 180.135 112.302 178.384 112.674L183.921 121.72H180.472ZM171.739 110.629H175.979C177.54 110.629 178.711 110.257 179.491 109.513C180.272 108.749 180.662 107.737 180.662 106.477C180.662 105.197 180.272 104.205 179.491 103.503C178.732 102.801 177.561 102.45 175.979 102.45H171.739V110.629Z" fill="#00AA4F"/>
<path d="M161.222 121.72L155.969 112.89H152.489V121.72H149.609V100.126H156.729C158.395 100.126 159.798 100.405 160.937 100.963C162.097 101.52 162.962 102.274 163.531 103.224C164.101 104.174 164.386 105.259 164.386 106.477C164.386 107.964 163.943 109.276 163.057 110.412C162.192 111.548 160.884 112.302 159.133 112.674L164.671 121.72H161.222ZM152.489 110.629H156.729C158.29 110.629 159.46 110.257 160.241 109.513C161.021 108.749 161.412 107.737 161.412 106.477C161.412 105.197 161.021 104.205 160.241 103.503C159.481 102.801 158.311 102.45 156.729 102.45H152.489V110.629Z" fill="#00AA4F"/>
<path d="M134.734 121.938C132.688 121.938 130.821 121.473 129.134 120.544C127.446 119.594 126.107 118.282 125.115 116.609C124.145 114.916 123.66 113.015 123.66 110.909C123.66 108.802 124.145 106.912 125.115 105.239C126.107 103.546 127.446 102.234 129.134 101.305C130.821 100.355 132.688 99.8796 134.734 99.8796C136.801 99.8796 138.679 100.355 140.366 101.305C142.054 102.234 143.383 103.535 144.353 105.208C145.323 106.881 145.808 108.781 145.808 110.909C145.808 113.036 145.323 114.936 144.353 116.609C143.383 118.282 142.054 119.594 140.366 120.544C138.679 121.473 136.801 121.938 134.734 121.938ZM134.734 119.49C136.274 119.49 137.656 119.139 138.879 118.437C140.124 117.735 141.094 116.733 141.79 115.432C142.507 114.131 142.866 112.623 142.866 110.909C142.866 109.174 142.507 107.666 141.79 106.386C141.094 105.084 140.134 104.083 138.911 103.38C137.687 102.678 136.295 102.327 134.734 102.327C133.173 102.327 131.781 102.678 130.557 103.38C129.334 104.083 128.364 105.084 127.646 106.386C126.95 107.666 126.602 109.174 126.602 110.909C126.602 112.623 126.95 114.131 127.646 115.432C128.364 116.733 129.334 117.735 130.557 118.437C131.802 119.139 133.194 119.49 134.734 119.49Z" fill="#00AA4F"/>
<path d="M113.957 119.427H121.677V121.72H111.078V100.126H113.957V119.427Z" fill="#00AA4F"/>
<path d="M108.041 100.126L100.858 113.572V121.72H97.9788V113.572L90.7646 100.126H93.9604L99.4027 111.063L104.845 100.126H108.041Z" fill="#0072BB"/>
<path d="M87.7165 100.282V121.721H84.8372V105.735L77.5597 121.721H75.5347L68.2255 105.704V121.721H65.3462V100.282H68.447L76.5472 118.003L84.6473 100.282H87.7165Z" fill="#0072BB"/>
<g clip-path="url(#clip0_1_45)">
<path d="M112.861 0.13513C113.142 0.120901 113.366 0.0924418 113.59 0.0924418C118.626 0.0924418 123.662 0.0924418 128.691 0.0853271C129.139 0.0853271 129.407 0.199162 129.652 0.604698C132.376 5.10117 135.115 9.58342 137.86 14.0657C140.526 18.4198 143.2 22.7669 145.866 27.1211C147.022 29.0065 148.178 30.8919 149.305 32.7986C149.594 33.2895 149.919 33.5029 150.526 33.5029C157.455 33.4816 164.384 33.4389 171.314 33.5385C172.816 33.5599 173.669 33.1828 174.399 31.8523C176.061 28.8428 177.918 25.9401 179.695 22.9946C181.472 20.0491 183.257 17.1036 185.027 14.1581C186.928 10.9992 188.813 7.84032 190.714 4.68141C191.552 3.28693 192.412 1.90668 193.228 0.505093C193.452 0.128015 193.77 0.142245 194.11 0.142245C197.057 0.142245 200.005 0.142245 202.953 0.142245C204.984 0.142245 207.014 0.156474 209.044 0.13513C209.615 0.128015 209.796 0.284538 209.796 0.867941C209.774 4.03397 209.796 7.2 209.796 10.366C209.803 13.8522 209.817 17.3384 209.832 20.8175C209.846 25.7906 209.868 30.7638 209.882 35.737C209.882 36.6121 209.854 36.6476 208.943 36.6476C205.786 36.6476 202.628 36.6192 199.471 36.6263C192.903 36.6263 186.342 36.6619 179.774 36.6619C159.023 36.6761 138.272 36.6761 117.521 36.6832C110.765 36.6832 104.002 36.6903 97.2466 36.6832C96.7842 36.6832 96.5674 36.854 96.394 37.2524C95.0356 40.3971 91.9071 41.7915 88.6195 40.7457C84.7756 39.522 83.2728 34.4563 85.845 31.3899C88.9374 27.7045 94.5588 28.5156 96.4157 32.9338C96.5891 33.3535 96.8275 33.4816 97.2755 33.4816C102.174 33.4745 107.073 33.4816 111.979 33.4816C112.581 33.4816 112.882 33.178 112.882 32.5709C112.882 22.0981 112.882 11.6182 112.882 1.14541C112.882 0.832368 112.882 0.512208 112.882 0.149359L112.861 0.13513ZM87.9114 35.0113C87.897 36.5836 89.1325 37.8287 90.7149 37.8287C92.2177 37.8287 93.5183 36.5623 93.5472 35.0539C93.5689 33.6381 92.225 32.2935 90.7582 32.2863C89.212 32.2721 87.9259 33.5029 87.9114 35.0113Z" fill="url(#paint0_linear_1_45)"/>
<path d="M122.059 67.4756C121.669 67.4471 121.372 67.4115 121.083 67.4115C114.537 67.4115 107.991 67.4115 101.445 67.4329C100.91 67.4329 100.578 67.2692 100.253 66.8495C97.9405 63.8471 95.5922 60.8803 93.2801 57.885C92.9839 57.5008 92.6877 57.3229 92.1963 57.33C90.0143 57.3514 87.8322 57.3514 85.6502 57.33C85.2166 57.33 85.0577 57.5221 84.9132 57.8636C83.7354 60.6099 81.3077 62.0115 78.3237 61.67C75.8381 61.3854 73.6633 59.3506 73.1792 56.8605C72.5723 53.7585 74.4003 50.8415 77.5361 49.9094C80.4479 49.0414 83.6632 50.5569 84.8337 53.3956C85.0721 53.9648 85.3684 54.1355 85.9681 54.1355C88.627 54.1071 91.2932 54.1355 93.9521 54.1213C94.3567 54.1213 94.624 54.2494 94.8625 54.5624C97.1674 57.5435 99.4939 60.5103 101.784 63.4985C102.16 63.9894 102.557 64.2028 103.208 64.2028C125.968 64.1886 148.727 64.2028 171.487 64.2099C183.951 64.2099 196.407 64.2313 208.871 64.2455C209.045 64.2455 209.218 64.2526 209.391 64.2455C209.782 64.2384 209.941 64.4305 209.933 64.8076C209.919 65.2771 209.919 65.7467 209.919 66.2234C209.948 72.1143 209.984 78.0124 210.013 83.9033C210.013 84.9065 209.998 84.9279 209.001 84.9279C203.373 84.9279 197.744 84.9207 192.116 84.9421C191.545 84.9421 191.494 84.6646 191.487 84.2448C191.465 81.4203 191.429 78.5958 191.415 75.7713C191.4 73.338 191.415 70.9119 191.415 68.4787C191.415 67.3617 191.393 67.3546 190.266 67.3617C184.616 67.376 178.973 67.3973 173.323 67.4115C172.73 67.4115 172.138 67.4115 171.545 67.3973C171.162 67.3831 170.902 67.5254 170.7 67.8597C169.182 70.3641 167.651 72.8614 166.141 75.3728C165.938 75.7072 165.743 75.9207 165.31 75.9207C162.629 75.9064 159.948 75.9349 157.268 75.8993C157.037 75.8993 156.726 75.6432 156.589 75.4226C154.999 72.9112 153.453 70.3855 151.856 67.8811C151.719 67.6605 151.357 67.4471 151.097 67.44C144.761 67.4186 138.424 67.4258 132.087 67.4186C131.676 67.4186 131.531 67.5609 131.531 67.9807C131.531 72.7475 131.524 77.5144 131.509 82.2812C131.509 82.9784 131.488 83.6757 131.509 84.3729C131.524 84.814 131.35 84.9563 130.903 84.9563C127.629 84.9421 124.356 84.9563 121.083 84.9563C118.554 84.9563 116.033 84.9421 113.504 84.9563C113.027 84.9563 112.882 84.814 112.89 84.3444C112.911 82.3666 112.89 80.3887 112.904 78.4108C112.904 77.8701 112.731 77.6709 112.174 77.6922C111.293 77.7278 110.411 77.7136 109.53 77.6922C109.133 77.6851 108.909 77.8132 108.757 78.1974C107.521 81.3705 103.952 82.9429 100.751 81.6409C98.4535 80.7088 97.1385 78.9373 96.9506 76.4898C96.7772 74.2274 97.7309 72.3989 99.624 71.1254C101.842 69.6313 104.653 69.7167 106.755 71.3104C107.666 71.9934 108.352 72.8827 108.742 73.9499C108.887 74.3483 109.082 74.5262 109.523 74.5262C111.741 74.512 113.966 74.5404 116.184 74.5049C116.452 74.5049 116.799 74.3056 116.972 74.0922C118.583 72.0574 120.166 70.0013 121.748 67.9522C121.835 67.8384 121.907 67.7103 122.059 67.4756ZM103.042 78.8661C104.588 78.8661 105.874 77.6282 105.881 76.127C105.896 74.6258 104.573 73.3167 103.042 73.3096C101.488 73.3096 100.202 74.5831 100.209 76.127C100.209 77.6495 101.474 78.8661 103.042 78.8661ZM81.9941 55.7292C81.9941 54.2352 80.7442 52.9474 79.263 52.9332C77.6878 52.9189 76.38 54.164 76.3584 55.6937C76.3367 57.1806 77.7023 58.5253 79.2196 58.5111C80.6936 58.4968 81.9869 57.202 81.9941 55.7292Z" fill="url(#paint1_linear_1_45)"/>
<path d="M147.109 46.9497C126.567 46.9497 106.025 46.9497 85.4838 46.9639C84.8697 46.9639 84.4795 46.7932 84.0965 46.3022C81.1486 42.4817 78.1718 38.6753 75.1877 34.8832C75.0287 34.684 74.6964 34.5132 74.4435 34.5061C72.2398 34.4777 70.0433 34.5061 67.8395 34.4777C67.3843 34.4777 67.1676 34.6199 67.0014 35.0397C66.0765 37.352 63.7861 38.9172 61.2861 38.8745C58.7211 38.8318 56.792 37.6366 55.7154 35.3528C54.6605 33.133 54.9495 30.9488 56.5246 29.042C58.0492 27.1993 60.0795 26.495 62.4711 26.9432C64.6531 27.3559 66.1343 28.6507 67.0014 30.6286C67.1965 31.0697 67.4349 31.212 67.8973 31.212C70.6141 31.1978 73.3308 31.212 76.0547 31.1978C76.4449 31.1978 76.6906 31.3259 76.9146 31.6176C79.8914 35.4666 82.8899 39.3014 85.8668 43.1576C86.1558 43.5346 86.4665 43.6912 86.965 43.6912C116.119 43.6912 145.274 43.6912 174.435 43.6983C185.959 43.6983 197.484 43.7054 209.008 43.7125C209.846 43.7125 209.897 43.7552 209.897 44.5591C209.897 45.1639 209.89 45.7615 209.897 46.3663C209.897 46.6935 209.767 46.8572 209.427 46.8572C209.124 46.8572 208.813 46.8714 208.51 46.8714C201.769 46.8714 195.035 46.8714 188.293 46.8714C174.565 46.8714 160.844 46.8714 147.116 46.8714C147.116 46.8928 147.116 46.9141 147.116 46.9354L147.109 46.9497ZM58.4899 32.8342C58.4899 34.3354 59.7544 35.6089 61.2861 35.6373C62.724 35.6658 64.1329 34.2713 64.1185 32.8413C64.104 31.4183 62.7529 30.0808 61.3223 30.0666C59.8194 30.0523 58.4899 31.3543 58.4899 32.8342Z" fill="url(#paint2_linear_1_45)"/>
<path d="M163.12 57.2161C148.019 57.2161 132.911 57.2161 117.81 57.2161C117.73 57.2161 117.658 57.2232 117.579 57.2161C116.914 57.1236 116.553 57.3442 116.249 58.0129C115.209 60.311 113.294 61.5632 110.787 61.5916C107.261 61.6272 104.609 58.9948 104.588 55.5868C104.559 51.1971 109.154 48.2445 113.309 50.1299C114.732 50.7773 115.787 51.8374 116.329 53.2959C116.538 53.8509 116.827 53.9932 117.376 53.9932C121.553 53.9789 125.722 53.986 129.898 53.986C147.051 53.986 164.204 54.0003 181.357 54.0074C190.584 54.0074 199.81 54.0074 209.037 54.0074C209.89 54.0074 209.897 54.0074 209.904 54.854C209.904 55.4374 209.904 56.0208 209.904 56.6042C209.904 56.9742 209.731 57.1592 209.348 57.1592C208.813 57.1592 208.278 57.1663 207.737 57.1663C195.063 57.1663 182.39 57.1663 169.717 57.1734C167.513 57.1734 165.317 57.1734 163.113 57.1734C163.113 57.1876 163.113 57.1948 163.113 57.209L163.12 57.2161ZM110.715 58.3402C112.254 58.3331 113.547 57.0667 113.547 55.5726C113.547 54.0856 112.16 52.741 110.657 52.7623C109.183 52.7837 107.824 54.1497 107.853 55.594C107.882 57.0952 109.183 58.3473 110.715 58.3402Z" fill="url(#paint3_linear_1_45)"/>
</g>
<path d="M69.6738 135.217H71.4375L73.043 138.311L74.6367 135.217H76.377L73.8574 140.104V143.836H72.2051V140.104L69.6738 135.217Z" fill="#00AA4F"/>
<path d="M64.4004 135.217H69.1641V136.834H67.5938V143.836H65.9297V136.834H64.4004V135.217Z" fill="#00AA4F"/>
<path d="M59.0098 135.217H63.7148V136.822H60.6387V138.381H63.7148V139.957H60.6387V142.225H63.7148V143.836H59.0098V135.217Z" fill="#00AA4F"/>
<path d="M53.2617 135.217H57.5391V136.816H54.8848V138.381H57.5391V139.957H54.8848V143.836H53.2617V135.217Z" fill="#00AA4F"/>
<path d="M46.9805 135.217H48.6445L51.9609 143.836H50.2559L49.582 142.061H46.0664L45.3633 143.836H43.6582L46.9805 135.217ZM47.8242 137.502L46.6758 140.461H48.9668L47.8242 137.502Z" fill="#00AA4F"/>
<path d="M42.627 136.389L41.4141 137.461C40.9883 136.867 40.5547 136.57 40.1133 136.57C39.8984 136.57 39.7227 136.629 39.5859 136.746C39.4492 136.859 39.3809 136.988 39.3809 137.133C39.3809 137.277 39.4297 137.414 39.5273 137.543C39.6602 137.715 40.0605 138.084 40.7285 138.65C41.3535 139.174 41.7324 139.504 41.8652 139.641C42.1973 139.977 42.4316 140.299 42.5684 140.607C42.709 140.912 42.7793 141.246 42.7793 141.609C42.7793 142.316 42.5352 142.9 42.0469 143.361C41.5586 143.822 40.9219 144.053 40.1367 144.053C39.5234 144.053 38.9883 143.902 38.5312 143.602C38.0781 143.301 37.6895 142.828 37.3652 142.184L38.7422 141.352C39.1562 142.113 39.6328 142.494 40.1719 142.494C40.4531 142.494 40.6895 142.412 40.8809 142.248C41.0723 142.084 41.168 141.895 41.168 141.68C41.168 141.484 41.0957 141.289 40.9512 141.094C40.8066 140.898 40.4883 140.6 39.9961 140.197C39.0586 139.432 38.4531 138.842 38.1797 138.428C37.9062 138.01 37.7695 137.594 37.7695 137.18C37.7695 136.582 37.9961 136.07 38.4492 135.645C38.9062 135.215 39.4688 135 40.1367 135C40.5664 135 40.9746 135.1 41.3613 135.299C41.752 135.498 42.1738 135.861 42.627 136.389Z" fill="#00AA4F"/>
<path d="M28.5059 135.217H33.2109V136.822H30.1348V138.381H33.2109V139.957H30.1348V142.225H33.2109V143.836H28.5059V135.217Z" fill="#0072BB"/>
<path d="M21.6504 135.217H23.3906C24.3438 135.217 25.0215 135.303 25.4238 135.475C25.8301 135.643 26.1562 135.924 26.4023 136.318C26.6484 136.713 26.7715 137.18 26.7715 137.719C26.7715 138.285 26.6348 138.76 26.3613 139.143C26.0918 139.521 25.6836 139.809 25.1367 140.004L27.1758 143.836H25.3828L23.4434 140.186H23.291V143.836H21.6504V135.217ZM23.291 138.586H23.8066C24.3301 138.586 24.6895 138.518 24.8848 138.381C25.084 138.244 25.1836 138.018 25.1836 137.701C25.1836 137.514 25.1348 137.352 25.0371 137.215C24.9395 137.074 24.8086 136.975 24.6445 136.916C24.4805 136.854 24.1797 136.822 23.7422 136.822H23.291V138.586Z" fill="#0072BB"/>
<path d="M15.5332 135C16.752 135 17.7988 135.441 18.6738 136.324C19.5527 137.207 19.9922 138.283 19.9922 139.553C19.9922 140.811 19.5586 141.875 18.6914 142.746C17.8281 143.617 16.7793 144.053 15.5449 144.053C14.252 144.053 13.1777 143.605 12.3223 142.711C11.4668 141.816 11.0391 140.754 11.0391 139.523C11.0391 138.699 11.2383 137.941 11.6367 137.25C12.0352 136.559 12.582 136.012 13.2773 135.609C13.9766 135.203 14.7285 135 15.5332 135ZM15.5156 136.605C14.7188 136.605 14.0488 136.883 13.5059 137.438C12.9629 137.992 12.6914 138.697 12.6914 139.553C12.6914 140.506 13.0332 141.26 13.7168 141.814C14.248 142.248 14.8574 142.465 15.5449 142.465C16.3223 142.465 16.9844 142.184 17.5312 141.621C18.0781 141.059 18.3516 140.365 18.3516 139.541C18.3516 138.721 18.0762 138.027 17.5254 137.461C16.9746 136.891 16.3047 136.605 15.5156 136.605Z" fill="#0072BB"/>
<path d="M1.48828 135.217H3.09375L5.08594 141.229L7.10742 135.217H8.68945L10.1426 143.836H8.56055L7.63477 138.393L5.80078 143.836H4.35352L2.54297 138.393L1.59961 143.836H0L1.48828 135.217Z" fill="#0072BB"/>
<path d="M291.924 136.389L290.711 137.461C290.285 136.867 289.852 136.57 289.41 136.57C289.195 136.57 289.02 136.629 288.883 136.746C288.746 136.859 288.678 136.988 288.678 137.133C288.678 137.277 288.727 137.414 288.824 137.543C288.957 137.715 289.357 138.084 290.025 138.65C290.65 139.174 291.029 139.504 291.162 139.641C291.494 139.977 291.729 140.299 291.865 140.607C292.006 140.912 292.076 141.246 292.076 141.609C292.076 142.316 291.832 142.9 291.344 143.361C290.855 143.822 290.219 144.053 289.434 144.053C288.82 144.053 288.285 143.902 287.828 143.602C287.375 143.301 286.986 142.828 286.662 142.184L288.039 141.352C288.453 142.113 288.93 142.494 289.469 142.494C289.75 142.494 289.986 142.412 290.178 142.248C290.369 142.084 290.465 141.895 290.465 141.68C290.465 141.484 290.393 141.289 290.248 141.094C290.104 140.898 289.785 140.6 289.293 140.197C288.355 139.432 287.75 138.842 287.477 138.428C287.203 138.01 287.066 137.594 287.066 137.18C287.066 136.582 287.293 136.07 287.746 135.645C288.203 135.215 288.766 135 289.434 135C289.863 135 290.271 135.1 290.658 135.299C291.049 135.498 291.471 135.861 291.924 136.389Z" fill="#00AA4F"/>
<path d="M285.285 136.623L284.131 137.766C283.4 136.992 282.549 136.605 281.576 136.605C280.729 136.605 280.018 136.887 279.443 137.449C278.873 138.012 278.588 138.695 278.588 139.5C278.588 140.332 278.885 141.037 279.479 141.615C280.072 142.193 280.805 142.482 281.676 142.482C282.242 142.482 282.719 142.363 283.105 142.125C283.496 141.887 283.811 141.514 284.049 141.006H281.553V139.465H285.889L285.9 139.828C285.9 140.582 285.705 141.297 285.314 141.973C284.924 142.648 284.418 143.164 283.797 143.52C283.176 143.875 282.447 144.053 281.611 144.053C280.717 144.053 279.918 143.859 279.215 143.473C278.516 143.082 277.961 142.527 277.551 141.809C277.145 141.09 276.941 140.314 276.941 139.482C276.941 138.342 277.318 137.35 278.072 136.506C278.967 135.502 280.131 135 281.564 135C282.314 135 283.016 135.139 283.668 135.416C284.219 135.65 284.758 136.053 285.285 136.623Z" fill="#00AA4F"/>
<path d="M268.451 135.217H270.021L273.719 140.889V135.217H275.359V143.836H273.783L270.092 138.182V143.836H268.451V135.217Z" fill="#00AA4F"/>
<path d="M264.965 135.217H266.594V143.836H264.965V135.217Z" fill="#00AA4F"/>
<path d="M256.205 135.217H257.775L261.473 140.889V135.217H263.113V143.836H261.537L257.846 138.182V143.836H256.205V135.217Z" fill="#00AA4F"/>
<path d="M249.35 135.217H251.09C252.043 135.217 252.721 135.303 253.123 135.475C253.529 135.643 253.855 135.924 254.102 136.318C254.348 136.713 254.471 137.18 254.471 137.719C254.471 138.285 254.334 138.76 254.061 139.143C253.791 139.521 253.383 139.809 252.836 140.004L254.875 143.836H253.082L251.143 140.186H250.99V143.836H249.35V135.217ZM250.99 138.586H251.506C252.029 138.586 252.389 138.518 252.584 138.381C252.783 138.244 252.883 138.018 252.883 137.701C252.883 137.514 252.834 137.352 252.736 137.215C252.639 137.074 252.508 136.975 252.344 136.916C252.18 136.854 251.879 136.822 251.441 136.822H250.99V138.586Z" fill="#00AA4F"/>
<path d="M242.98 135.217H244.645L247.961 143.836H246.256L245.582 142.061H242.066L241.363 143.836H239.658L242.98 135.217ZM243.824 137.502L242.676 140.461H244.967L243.824 137.502Z" fill="#00AA4F"/>
<path d="M234.115 135.217H238.82V136.822H235.744V138.381H238.82V139.957H235.744V142.225H238.82V143.836H234.115V135.217Z" fill="#00AA4F"/>
<path d="M224.506 135.217H229.211V136.822H226.135V138.381H229.211V139.957H226.135V142.225H229.211V143.836H224.506V135.217Z" fill="#0072BB"/>
<path d="M217.65 135.217H219.391C220.344 135.217 221.021 135.303 221.424 135.475C221.83 135.643 222.156 135.924 222.402 136.318C222.648 136.713 222.771 137.18 222.771 137.719C222.771 138.285 222.635 138.76 222.361 139.143C222.092 139.521 221.684 139.809 221.137 140.004L223.176 143.836H221.383L219.443 140.186H219.291V143.836H217.65V135.217ZM219.291 138.586H219.807C220.33 138.586 220.689 138.518 220.885 138.381C221.084 138.244 221.184 138.018 221.184 137.701C221.184 137.514 221.135 137.352 221.037 137.215C220.939 137.074 220.809 136.975 220.645 136.916C220.48 136.854 220.18 136.822 219.742 136.822H219.291V138.586Z" fill="#0072BB"/>
<path d="M211.533 135C212.752 135 213.799 135.441 214.674 136.324C215.553 137.207 215.992 138.283 215.992 139.553C215.992 140.811 215.559 141.875 214.691 142.746C213.828 143.617 212.779 144.053 211.545 144.053C210.252 144.053 209.178 143.605 208.322 142.711C207.467 141.816 207.039 140.754 207.039 139.523C207.039 138.699 207.238 137.941 207.637 137.25C208.035 136.559 208.582 136.012 209.277 135.609C209.977 135.203 210.729 135 211.533 135ZM211.516 136.605C210.719 136.605 210.049 136.883 209.506 137.438C208.963 137.992 208.691 138.697 208.691 139.553C208.691 140.506 209.033 141.26 209.717 141.814C210.248 142.248 210.857 142.465 211.545 142.465C212.322 142.465 212.984 142.184 213.531 141.621C214.078 141.059 214.352 140.365 214.352 139.541C214.352 138.721 214.076 138.027 213.525 137.461C212.975 136.891 212.305 136.605 211.516 136.605Z" fill="#0072BB"/>
<path d="M197.488 135.217H199.094L201.086 141.229L203.107 135.217H204.689L206.143 143.836H204.561L203.635 138.393L201.801 143.836H200.354L198.543 138.393L197.6 143.836H196L197.488 135.217Z" fill="#0072BB"/>
<path d="M180.482 136.389L179.27 137.461C178.844 136.867 178.41 136.57 177.969 136.57C177.754 136.57 177.578 136.629 177.441 136.746C177.305 136.859 177.236 136.988 177.236 137.133C177.236 137.277 177.285 137.414 177.383 137.543C177.516 137.715 177.916 138.084 178.584 138.65C179.209 139.174 179.588 139.504 179.721 139.641C180.053 139.977 180.287 140.299 180.424 140.607C180.564 140.912 180.635 141.246 180.635 141.609C180.635 142.316 180.391 142.9 179.902 143.361C179.414 143.822 178.777 144.053 177.992 144.053C177.379 144.053 176.844 143.902 176.387 143.602C175.934 143.301 175.545 142.828 175.221 142.184L176.598 141.352C177.012 142.113 177.488 142.494 178.027 142.494C178.309 142.494 178.545 142.412 178.736 142.248C178.928 142.084 179.023 141.895 179.023 141.68C179.023 141.484 178.951 141.289 178.807 141.094C178.662 140.898 178.344 140.6 177.852 140.197C176.914 139.432 176.309 138.842 176.035 138.428C175.762 138.01 175.625 137.594 175.625 137.18C175.625 136.582 175.852 136.07 176.305 135.645C176.762 135.215 177.324 135 177.992 135C178.422 135 178.83 135.1 179.217 135.299C179.607 135.498 180.029 135.861 180.482 136.389Z" fill="#00AA4F"/>
<path d="M173.844 136.623L172.689 137.766C171.959 136.992 171.107 136.605 170.135 136.605C169.287 136.605 168.576 136.887 168.002 137.449C167.432 138.012 167.146 138.695 167.146 139.5C167.146 140.332 167.443 141.037 168.037 141.615C168.631 142.193 169.363 142.482 170.234 142.482C170.801 142.482 171.277 142.363 171.664 142.125C172.055 141.887 172.369 141.514 172.607 141.006H170.111V139.465H174.447L174.459 139.828C174.459 140.582 174.264 141.297 173.873 141.973C173.482 142.648 172.977 143.164 172.355 143.52C171.734 143.875 171.006 144.053 170.17 144.053C169.275 144.053 168.477 143.859 167.773 143.473C167.074 143.082 166.52 142.527 166.109 141.809C165.703 141.09 165.5 140.314 165.5 139.482C165.5 138.342 165.877 137.35 166.631 136.506C167.525 135.502 168.689 135 170.123 135C170.873 135 171.574 135.139 172.227 135.416C172.777 135.65 173.316 136.053 173.844 136.623Z" fill="#00AA4F"/>
<path d="M157.01 135.217H158.58L162.277 140.889V135.217H163.918V143.836H162.342L158.65 138.182V143.836H157.01V135.217Z" fill="#00AA4F"/>
<path d="M153.523 135.217H155.152V143.836H153.523V135.217Z" fill="#00AA4F"/>
<path d="M144.582 135.217H146.27L148.438 141.34L150.635 135.217H152.322L149.217 143.836H147.635L144.582 135.217Z" fill="#00AA4F"/>
<path d="M138.98 135.217H140.645L143.961 143.836H142.256L141.582 142.061H138.066L137.363 143.836H135.658L138.98 135.217ZM139.824 137.502L138.676 140.461H140.967L139.824 137.502Z" fill="#00AA4F"/>
<path d="M134.627 136.389L133.414 137.461C132.988 136.867 132.555 136.57 132.113 136.57C131.898 136.57 131.723 136.629 131.586 136.746C131.449 136.859 131.381 136.988 131.381 137.133C131.381 137.277 131.43 137.414 131.527 137.543C131.66 137.715 132.061 138.084 132.729 138.65C133.354 139.174 133.732 139.504 133.865 139.641C134.197 139.977 134.432 140.299 134.568 140.607C134.709 140.912 134.779 141.246 134.779 141.609C134.779 142.316 134.535 142.9 134.047 143.361C133.559 143.822 132.922 144.053 132.137 144.053C131.523 144.053 130.988 143.902 130.531 143.602C130.078 143.301 129.689 142.828 129.365 142.184L130.742 141.352C131.156 142.113 131.633 142.494 132.172 142.494C132.453 142.494 132.689 142.412 132.881 142.248C133.072 142.084 133.168 141.895 133.168 141.68C133.168 141.484 133.096 141.289 132.951 141.094C132.807 140.898 132.488 140.6 131.996 140.197C131.059 139.432 130.453 138.842 130.18 138.428C129.906 138.01 129.77 137.594 129.77 137.18C129.77 136.582 129.996 136.07 130.449 135.645C130.906 135.215 131.469 135 132.137 135C132.566 135 132.975 135.1 133.361 135.299C133.752 135.498 134.174 135.861 134.627 136.389Z" fill="#00AA4F"/>
<path d="M120.506 135.217H125.211V136.822H122.135V138.381H125.211V139.957H122.135V142.225H125.211V143.836H120.506V135.217Z" fill="#0072BB"/>
<path d="M113.65 135.217H115.391C116.344 135.217 117.021 135.303 117.424 135.475C117.83 135.643 118.156 135.924 118.402 136.318C118.648 136.713 118.771 137.18 118.771 137.719C118.771 138.285 118.635 138.76 118.361 139.143C118.092 139.521 117.684 139.809 117.137 140.004L119.176 143.836H117.383L115.443 140.186H115.291V143.836H113.65V135.217ZM115.291 138.586H115.807C116.33 138.586 116.689 138.518 116.885 138.381C117.084 138.244 117.184 138.018 117.184 137.701C117.184 137.514 117.135 137.352 117.037 137.215C116.939 137.074 116.809 136.975 116.645 136.916C116.48 136.854 116.18 136.822 115.742 136.822H115.291V138.586Z" fill="#0072BB"/>
<path d="M107.533 135C108.752 135 109.799 135.441 110.674 136.324C111.553 137.207 111.992 138.283 111.992 139.553C111.992 140.811 111.559 141.875 110.691 142.746C109.828 143.617 108.779 144.053 107.545 144.053C106.252 144.053 105.178 143.605 104.322 142.711C103.467 141.816 103.039 140.754 103.039 139.523C103.039 138.699 103.238 137.941 103.637 137.25C104.035 136.559 104.582 136.012 105.277 135.609C105.977 135.203 106.729 135 107.533 135ZM107.516 136.605C106.719 136.605 106.049 136.883 105.506 137.438C104.963 137.992 104.691 138.697 104.691 139.553C104.691 140.506 105.033 141.26 105.717 141.814C106.248 142.248 106.857 142.465 107.545 142.465C108.322 142.465 108.984 142.184 109.531 141.621C110.078 141.059 110.352 140.365 110.352 139.541C110.352 138.721 110.076 138.027 109.525 137.461C108.975 136.891 108.305 136.605 107.516 136.605Z" fill="#0072BB"/>
<path d="M93.4883 135.217H95.0938L97.0859 141.229L99.1074 135.217H100.689L102.143 143.836H100.561L99.6348 138.393L97.8008 143.836H96.3535L94.543 138.393L93.5996 143.836H92L93.4883 135.217Z" fill="#0072BB"/>
<path d="M84.6336 141.678C84.0852 141.678 83.6211 141.492 83.2414 141.12C82.8617 140.748 82.6719 140.294 82.6719 139.757C82.6719 139.22 82.8617 138.765 83.2414 138.394C83.6211 138.022 84.0852 137.836 84.6336 137.836C85.161 137.836 85.6039 138.022 85.9625 138.394C86.3422 138.765 86.5321 139.22 86.5321 139.757C86.5321 140.294 86.3422 140.748 85.9625 141.12C85.6039 141.492 85.161 141.678 84.6336 141.678Z" fill="#0072BB"/>
<path d="M188.634 141.678C188.085 141.678 187.621 141.492 187.241 141.12C186.862 140.748 186.672 140.294 186.672 139.757C186.672 139.22 186.862 138.765 187.241 138.394C187.621 138.022 188.085 137.836 188.634 137.836C189.161 137.836 189.604 138.022 189.963 138.394C190.342 138.765 190.532 139.22 190.532 139.757C190.532 140.294 190.342 140.748 189.963 141.12C189.604 141.492 189.161 141.678 188.634 141.678Z" fill="#0072BB"/>
<defs>
<linearGradient id="paint0_linear_1_45" x1="84.5661" y1="20.5827" x2="209.89" y2="20.5827" gradientUnits="userSpaceOnUse">
<stop stop-color="#00AA4F"/>
<stop offset="1" stop-color="#0072BB"/>
</linearGradient>
<linearGradient id="paint1_linear_1_45" x1="73.0564" y1="67.3048" x2="209.998" y2="67.3048" gradientUnits="userSpaceOnUse">
<stop stop-color="#00AA4F"/>
<stop offset="1" stop-color="#0072BB"/>
</linearGradient>
<linearGradient id="paint2_linear_1_45" x1="55.0868" y1="36.8895" x2="209.89" y2="36.8895" gradientUnits="userSpaceOnUse">
<stop stop-color="#00AA4F"/>
<stop offset="1" stop-color="#0072BB"/>
</linearGradient>
<linearGradient id="paint3_linear_1_45" x1="104.58" y1="55.5655" x2="209.904" y2="55.5655" gradientUnits="userSpaceOnUse">
<stop stop-color="#00AA4F"/>
<stop offset="1" stop-color="#0072BB"/>
</linearGradient>
<clipPath id="clip0_1_45">
<rect width="155.085" height="85.0346" fill="white" transform="translate(55)"/>
</clipPath>
</defs>
</svg>
